<?xml version="1.0" encoding="UTF-8" standalone="no"?>
<!-- Created with Inkscape (http://www.inkscape.org/) -->

<svg
   width="192"
   height="192"
   viewBox="0 0 50.799999 50.8"
   version="1.1"
   id="svg1"
   xml:space="preserve"
   inkscape:version="1.4-beta3 (01c8a1c, 2024-08-28)"
   sodipodi:docname="icon.svg"
   inkscape:export-filename="icon.png"
   inkscape:export-xdpi="98.93"
   inkscape:export-ydpi="98.93"
   xmlns:inkscape="http://www.inkscape.org/namespaces/inkscape"
   xmlns:sodipodi="http://sodipodi.sourceforge.net/DTD/sodipodi-0.dtd"
   xmlns="http://www.w3.org/2000/svg"
   xmlns:svg="http://www.w3.org/2000/svg"><sodipodi:namedview
     id="namedview1"
     pagecolor="#ffffff"
     bordercolor="#000000"
     borderopacity="0.25"
     inkscape:showpageshadow="2"
     inkscape:pageopacity="0.0"
     inkscape:pagecheckerboard="0"
     inkscape:deskcolor="#d1d1d1"
     inkscape:document-units="mm"
     inkscape:zoom="4.1727553"
     inkscape:cx="23.246031"
     inkscape:cy="88.790253"
     inkscape:window-width="2560"
     inkscape:window-height="1379"
     inkscape:window-x="1920"
     inkscape:window-y="32"
     inkscape:window-maximized="1"
     inkscape:current-layer="layer1" /><defs
     id="defs1" /><g
     inkscape:label="Layer 1"
     inkscape:groupmode="layer"
     id="layer1"><g
       style="clip-rule:evenodd;fill-rule:evenodd;stroke-linejoin:round;stroke-miterlimit:2;stroke-width:0.42937582;stroke-dasharray:none"
       id="g1"
       transform="matrix(2.4648182,0,0,2.4648182,-4.0585806,-4.3524542)"><path
         d="m 15.97,17.031 c -1.479,1.238 -3.384,1.985 -5.461,1.985 C 5.812,19.016 2,15.204 2,10.508 2,5.812 5.812,2 10.509,2 c 4.695,0 8.508,3.812 8.508,8.508 0,2.078 -0.747,3.984 -1.985,5.461 l 4.749,4.75 C 21.927,20.865 22,21.057 22,21.25 22,21.837 21.463,22 21.25,22 21.058,22 20.866,21.927 20.719,21.78 Z M 10.509,3.501 c -3.868,0 -7.007,3.14 -7.007,7.007 0,3.867 3.139,7.007 7.007,7.007 3.866,0 7.007,-3.14 7.007,-7.007 0,-3.867 -3.141,-7.007 -7.007,-7.007 z"
         fill-rule="nonzero"
         id="path1-2"
         style="stroke-width:0.42937582;stroke-dasharray:none" /></g><path
       style="fill:#ffffff;stroke:none;stroke-width:1.10936;stroke-linecap:round;stroke-dasharray:none;stroke-opacity:1;fill-opacity:1"
       id="path1"
       sodipodi:type="arc"
       sodipodi:cx="22.573061"
       sodipodi:cy="21.748705"
       sodipodi:rx="18.743011"
       sodipodi:ry="18.743011"
       sodipodi:start="0"
       sodipodi:end="5.6994339"
       sodipodi:open="true"
       sodipodi:arc-type="arc"
       d="M 41.316072,21.748705 A 18.743011,18.743011 0 0 1 25.298677,40.292477 18.743011,18.743011 0 0 1 4.6227697,27.14199 18.743011,18.743011 0 0 1 14.626769,4.7735194 18.743011,18.743011 0 0 1 38.212247,11.418344" /><path
       d="m 29.209261,19.14476 c -1.718988,0 -1.612671,3.347189 -2.423784,4.863104 -0.13617,0.252068 -0.507694,0.219786 -0.597288,-0.05255 -0.921016,-2.823967 -0.500524,-9.68559 -2.998375,-9.68559 -2.614918,0 -1.968657,8.879254 -2.986433,12.497612 -0.07526,0.274733 -0.45513,0.298662 -0.566224,0.03341 -1.075115,-2.581472 -0.954463,-8.212685 -2.988821,-8.212685 -2.104832,0 -1.925649,4.717366 -2.749902,6.61793 -0.108718,0.254461 -0.468273,0.262813 -0.588925,0.01174 C 12.708641,23.9646 12.516315,21.436883 10.246626,21.436883 H 7.6030392 c -0.3285051,0 -0.5960914,0.267599 -0.5960914,0.596091 0,0.328506 0.2675856,0.598484 0.5960914,0.598484 h 2.6435868 c 1.877866,0 1.239967,4.161887 3.409308,4.161887 2.011662,0 1.794246,-4.527428 2.655534,-6.534309 0.105108,-0.248456 0.456327,-0.241323 0.556671,0.0072 0.961628,2.44528 0.943714,8.3381 3.154862,8.3381 2.481128,0 1.597144,-9.384553 2.918339,-12.687545 0.09915,-0.252068 0.458716,-0.265206 0.572203,-0.01445 1.229213,2.687784 0.581756,9.70709 2.800075,9.70709 1.957903,0 2.074971,-3.232513 2.663896,-4.823683 0.09676,-0.253242 0.445577,-0.271166 0.566229,-0.03205 0.6164,1.195767 1.010606,3.072442 2.866973,3.072442 h 2.669865 c 0.328505,5e-6 0.596091,-0.267599 0.596091,-0.596086 0,-0.329724 -0.2676,-0.597287 -0.596091,-0.597287 h -2.669865 c -1.58042,0 -1.334338,-3.488149 -3.201455,-3.488149 z"
       id="path1-5"
       style="stroke:#000000;stroke-width:1.05833;stroke-dasharray:none;stroke-opacity:1" /></g></svg>
